<?xml version="1.0" encoding="utf-8"?>
<!-- Generator: Adobe Illustrator 28.1.0, SVG Export Plug-In . SVG Version: 6.00 Build 0)  -->
<svg version="1.1" id="Layer_1" xmlns="http://www.w3.org/2000/svg" xmlns:xlink="http://www.w3.org/1999/xlink" x="0px" y="0px"
	 viewBox="0 0 288.2 288" style="enable-background:new 0 0 288.2 288;" xml:space="preserve">
<style type="text/css">
	.st0{display:none;}
</style>
<g>
	<path d="M288.2,143.7c0.1,79.6-64.3,144.2-143.9,144.3c-0.1,0-0.1,0-0.2,0C64.6,287.9,0.2,223.4,0,143.9C0.3,64.5,64.7,0.2,144.1,0
		c79.6,0,144.1,64.5,144.1,144.1l0,0C288.2,144.1,288.2,143.7,288.2,143.7z M279.5,143.7c-11.3-24.9-29.5-46-52.4-60.8
		c-24.4-16.7-53.4-25.5-83-25.3c-29.7-0.2-58.8,8.6-83.4,25.3c-22.8,14.9-40.8,36-52,60.8c11.3,24.9,29.3,46.1,52,61.2
		c24.7,16.5,53.7,25.2,83.4,24.9c29.5,0.3,58.5-8.4,83-24.9C250,189.9,268.2,168.7,279.5,143.7z"/>
</g>
<path class="st0" d="M220.8,143.7c0,42.2-34.2,76.5-76.4,76.5c-20.3,0-39.8-8.1-54.1-22.4c-29.8-29.8-29.8-78.2,0-108.1
	c29.8-29.8,78.2-29.8,108.1,0C213,103.8,221.1,123.4,220.8,143.7z"/>
</svg>
